<?xml version="1.0" encoding="UTF-8"?>
<svg id="OBJECTS" xmlns="http://www.w3.org/2000/svg" version="1.1" viewBox="0 0 101.34 94.03">
  <!-- Generator: Adobe Illustrator 29.3.0, SVG Export Plug-In . SVG Version: 2.1.0 Build 146)  -->
  <defs>
    <style>
      .st0 {
        fill-rule: evenodd;
      }
    </style>
  </defs>
  <path class="st0" d="M4.08,89.77c.55,0,17.83,0,17.83,0,0,0,.28-11.2,14.1-11.06,13.82.14,11.89,11.06,11.89,11.06h16.59s1.24-18.66,16.04-31.38c14.65-12.72,17.7-26.96,15.9-35.81-1.8-8.99-8.71-21.01-25.44-19.91-9.68.69-13.27,8.02-13.27,12.72.14,10.09,13.96,13.27,17.83,7.88l-3.04-4.84c-11.34,5.12-10.23-10.51.28-9.26,17.42,1.94,16.45,23.09,1.94,20.6-7.19-1.11-16.31.14-18.25,5.12,0,0-11.47-7.19-21.43-2.49-9.95,4.84-12.03,13.82-8.71,21.43,10.78,24.88,36.36,8.43,34.15-.14,8.16,21.01-37.46,27.65-38.29-4.42,0,0-21.43,1.8-18.11,40.51h0ZM73.34,36.27c-1.24,0-2.21.97-2.21,2.21s.97,2.21,2.21,2.21c1.11,0,2.07-.97,2.07-2.21s-.97-2.21-2.07-2.21h0Z"/>
</svg>